<?xml version="1.0" standalone="no"?>
<!DOCTYPE svg PUBLIC "-//W3C//DTD SVG 20010904//EN"
 "http://www.w3.org/TR/2001/REC-SVG-20010904/DTD/svg10.dtd">
<svg version="1.0" xmlns="http://www.w3.org/2000/svg"
 width="2562.000000pt" height="1664.000000pt" viewBox="0 0 2562.000000 1664.000000"
 preserveAspectRatio="xMidYMid meet">
<metadata>
Created by potrace 1.16, written by Peter Selinger 2001-2019
</metadata>
<g transform="translate(0.000000,1664.000000) scale(0.100000,-0.100000)"
fill="#000000" stroke="none">
<path d="M0 8320 l0 -8320 12810 0 12810 0 0 8320 0 8320 -12810 0 -12810 0 0
-8320z m12277 2728 c176 -211 441 -529 590 -708 148 -179 379 -455 512 -614
197 -236 241 -294 239 -315 -2 -21 -9 -27 -36 -29 -26 -3 -99 31 -365 169
-649 337 -836 433 -1172 606 -187 96 -348 184 -359 196 -26 31 -22 54 79 467
133 549 152 610 185 610 5 0 152 -172 327 -382z m-2071 -174 c194 -101 355
-184 358 -184 3 0 171 -86 373 -191 203 -105 546 -284 763 -397 217 -112 539
-280 715 -372 176 -92 453 -236 615 -320 162 -83 300 -156 307 -162 20 -17 4
-36 -75 -84 -43 -27 -149 -94 -237 -149 -88 -56 -232 -143 -320 -194 -189
-109 -137 -106 -520 -36 -960 173 -1451 267 -1474 282 -33 21 -169 303 -671
1393 -65 140 -150 323 -189 405 -39 83 -71 155 -71 162 0 22 31 44 53 37 12
-4 179 -89 373 -190z m5532 -544 c49 -30 65 -89 40 -146 -8 -17 -82 -73 -218
-164 -114 -77 -211 -145 -217 -152 -14 -17 -78 -351 -71 -369 8 -22 128 -93
138 -83 5 5 29 72 54 150 32 98 54 149 72 167 20 20 84 45 263 102 130 42 246
80 259 85 107 45 210 -81 137 -168 -29 -35 -26 -33 -273 -112 -106 -33 -201
-69 -211 -79 -23 -23 -105 -266 -96 -282 4 -6 37 -30 74 -54 36 -24 78 -54 93
-68 54 -50 58 -67 83 -420 37 -497 41 -597 24 -630 -21 -40 -318 -356 -351
-373 -15 -8 -40 -14 -56 -14 -28 0 -186 86 -477 260 -71 42 -162 96 -201 118
-39 23 -77 49 -85 58 -11 14 -15 81 -19 338 -6 366 -4 358 -91 422 -74 54 -82
78 -65 211 20 165 21 166 226 278 69 37 158 89 199 114 86 53 78 34 127 295
18 97 35 160 49 180 18 27 444 321 500 346 32 14 58 11 93 -10z m-1768 -1223
c107 -62 267 -155 355 -206 182 -105 201 -121 216 -170 7 -24 9 -190 7 -474
l-3 -439 -26 -22 c-14 -12 -189 -118 -388 -235 -420 -247 -391 -239 -529 -158
-374 219 -456 266 -460 263 -2 -2 6 -52 17 -110 37 -185 101 -577 101 -618 0
-55 -25 -98 -137 -234 -54 -65 -141 -173 -193 -239 -160 -204 -378 -462 -407
-483 -36 -25 -80 -38 -173 -52 -227 -33 -759 -122 -781 -131 -19 -7 -45 -44
-93 -129 -78 -138 -119 -180 -174 -180 -84 0 -137 70 -135 175 1 33 11 119 22
192 25 155 26 267 6 401 -29 200 -96 761 -102 857 l-5 100 33 50 c48 70 607
752 688 838 20 21 49 45 64 53 27 15 205 33 625 64 177 13 150 23 297 -103
l100 -86 5 359 c5 336 6 359 24 379 11 12 78 56 150 98 429 249 579 335 599
343 63 25 94 14 297 -103z m488 -1810 c134 -78 278 -164 320 -192 l77 -50 3
-380 c1 -209 0 -390 -3 -403 -6 -26 -31 -42 -345 -229 -291 -174 -289 -173
-343 -173 -37 0 -68 14 -193 86 -82 47 -219 126 -305 176 -86 49 -167 100
-180 114 l-24 26 -3 366 c-2 259 1 374 9 394 8 20 40 44 113 86 55 32 202 117
326 189 124 71 232 133 240 136 30 12 69 -7 308 -146z m10077 -5765 c64 -176
201 -313 378 -377 34 -13 62 -28 62 -35 0 -7 -28 -22 -62 -35 -178 -64 -314
-200 -378 -378 -13 -34 -28 -62 -35 -62 -7 0 -22 28 -35 62 -64 178 -200 314
-378 378 -34 13 -62 28 -62 35 0 7 28 22 62 35 199 72 317 200 398 433 9 26
28 5 50 -56z"/>
<path d="M11814 7823 c-153 -182 -195 -235 -192 -243 3 -10 316 -247 578 -438
96 -71 280 -206 408 -300 128 -95 237 -172 241 -172 5 0 57 59 115 131 89 110
106 136 102 158 -27 141 -27 141 -64 171 -20 16 -237 174 -482 351 -245 177
-479 347 -520 378 -41 31 -80 60 -86 64 -6 4 -48 -38 -100 -100z"/>
<path d="M11360 7269 c-36 -44 -69 -87 -74 -96 -11 -20 10 -227 27 -263 17
-36 1010 -775 1058 -787 13 -4 31 4 51 23 37 36 250 290 250 299 -1 8 -128
103 -754 558 -262 191 -480 347 -485 347 -4 -1 -37 -37 -73 -81z"/>
</g>
</svg>
