<?xml version="1.0" encoding="UTF-8" standalone="no"?><!DOCTYPE svg PUBLIC "-//W3C//DTD SVG 1.1//EN" "http://www.w3.org/Graphics/SVG/1.1/DTD/svg11.dtd"><svg width="100%" height="100%" viewBox="0 0 352 324" version="1.1" xmlns="http://www.w3.org/2000/svg" xmlns:xlink="http://www.w3.org/1999/xlink" xml:space="preserve" xmlns:serif="http://www.serif.com/" style="fill-rule:evenodd;clip-rule:evenodd;stroke-linejoin:round;stroke-miterlimit:2;"><g><path d="M85.415,323.979c-1.393,-0.004 -2.786,-0.008 -4.596,-0.046c-0.417,-0.034 -0.449,-0.033 -0.682,-0.301c-1.585,-1.89 -2.937,-3.512 -4.29,-5.134c0,0 0.034,-0.43 -0.022,-1.106c0.142,-3.378 0.168,-6.107 0.572,-8.778c1.247,-8.253 2.416,-16.449 1.26,-24.869c-2.169,-15.794 -3.957,-31.64 -6.038,-47.447c-0.584,-4.437 0.412,-8.183 3.282,-11.602c2.903,-3.459 5.608,-7.084 8.663,-10.786c0.444,-0.503 0.625,-0.856 1.064,-1.361c0.55,-0.661 0.843,-1.17 1.444,-1.86c3.728,-4.424 7.148,-8.668 10.876,-13.095c4.052,-4.751 7.796,-9.318 11.792,-14.029c0.435,-0.48 0.618,-0.814 1.032,-1.325c0.322,-0.347 0.413,-0.518 0.818,-0.861c3.205,-3.535 7.213,-3.854 11.219,-4.168c8.682,-0.68 17.398,-1.072 26.034,-2.122c6.379,-0.775 11.747,0.114 16.216,5.172c1.497,1.695 3.208,3.824 6.431,3.964c0,-10.514 0.352,-20.681 -0.131,-30.809c-0.295,-6.182 2.094,-9.744 7.382,-12.461c5.461,-2.807 10.566,-6.307 16.205,-9.612c5.275,-2.882 10.27,-5.499 15.041,-8.475c4.49,-2.8 8.508,-2.866 13.15,-0.031c10.536,6.434 21.261,12.572 32.053,18.571c4.13,2.296 5.989,5.208 5.901,10.019c-0.207,11.44 0.168,22.891 0.005,34.332c-0.194,13.553 1.425,10.857 -10.611,18.135c-9.629,5.823 -19.322,11.54 -29.368,17.43c-4.122,2.113 -7.428,0.633 -10.632,-1.237c-6.734,-3.931 -13.421,-7.943 -20.157,-11.87c-1.602,-0.934 -3.323,-1.662 -5.664,-2.817c0.262,2.447 0.331,3.874 0.579,5.268c1.522,8.566 2.973,17.146 4.669,25.678c1.281,6.447 1.619,12.6 -3.203,17.93c0.033,0.051 0.136,-0.014 -0.146,0.096c-0.487,0.449 -0.691,0.788 -0.85,1.126c0.045,-0 0.045,-0.091 -0.21,0.027c-0.445,0.431 -0.635,0.744 -1.058,1.213c-0.427,0.471 -0.621,0.786 -1.084,1.282c-0.635,0.712 -1.001,1.242 -1.644,1.979c-5.018,6.275 -9.758,12.343 -14.759,18.566c-0.825,0.97 -1.39,1.786 -2.238,2.806c-0.465,0.621 -0.648,1.037 -0.775,1.385c0.056,-0.068 -0.077,-0.184 -0.375,0.047c-3.221,3.645 -6.251,6.974 -9.037,10.496c-2.848,3.601 -6.373,5.527 -10.952,6.239c-13.42,2.088 -26.793,4.476 -40.31,6.713c-0.126,-0.032 -0.283,0.174 -0.7,0.13c-1.698,0.362 -2.98,0.768 -4.251,1.238c0.01,0.063 0.137,0.044 -0.197,0.086c-0.596,0.39 -0.859,0.738 -1.387,1.334c-3.237,4.861 -6.209,9.475 -9.44,14.118c-0.613,0.176 -0.82,0.44 -0.878,0.819m11.386,-66.78c10.948,8.057 21.898,16.111 32.841,24.174c3.21,2.365 6.405,4.75 9.598,7.138c1.605,1.2 3.299,1.774 4.863,0.111c4.932,-5.245 9.362,-10.89 14.014,-16.873c-5.53,-4.129 -10.405,-7.862 -15.375,-11.462c-12.175,-8.82 -24.395,-17.578 -37.062,-26.631c0,0 -0.534,0.063 -1.009,-0.089c0,0 -0.493,-0.072 -0.648,-0.796c-4.011,-4.181 -9.012,-6.949 -13.836,-10.498c-2.569,3.139 -4.793,5.75 -6.876,8.469c-0.63,0.822 -1.251,1.955 -1.226,2.928c0.19,7.26 -0.092,14.735 7.989,18.721c2.251,1.11 4.228,2.778 6.727,4.809m34.816,-54.887c-5.089,-3.741 -10.178,-7.482 -15.757,-11.583c-5.04,6.734 -10.82,12.382 -15.832,19.431c22.852,16.893 45.116,33.351 67.668,50.023c3.435,-4.271 6.452,-7.886 9.316,-11.618c3.773,-4.914 2.727,-11.502 -2.354,-15.176c-14.129,-10.217 -28.277,-20.407 -43.042,-31.077Z" style="fill:#63ee6c;"/><path d="M13.686,52.331c-4.054,-8.867 -8.145,-17.718 -12.128,-26.617c-0.688,-1.538 -0.924,-3.278 -1.558,-5.628c6.291,-0.132 10.028,3.918 15.18,5.509c0.523,0.028 0.393,-0.253 0.413,0.062c0.402,0.468 0.783,0.621 1.167,0.793c0.002,0.018 0.035,0.001 0.231,0.25c0.784,0.464 1.372,0.678 1.956,0.861c-0.004,-0.031 -0.041,0.02 0.2,0.303c2.959,1.606 5.676,2.929 8.416,4.201c0.022,-0.051 -0.081,-0.095 0.124,0.203c0.883,0.489 1.561,0.68 2.181,0.781c-0.059,-0.089 -0.237,0.028 -0.028,0.33c0.893,0.485 1.579,0.668 2.168,0.783c-0.096,-0.068 -0.232,0.125 0.01,0.417c3.058,1.65 5.874,3.007 8.958,4.602c7.641,4.066 14.993,7.935 22.393,11.711c6.241,3.185 12.538,6.262 19.067,9.66c18.946,10.025 37.637,19.773 56.322,29.53c18.588,9.706 37.17,19.421 56.526,29.534c-3.303,2.486 -5.722,4.307 -8.209,6.107c-0.067,-0.021 -0.109,0.114 -0.383,0.186c-0.544,0.333 -0.813,0.594 -1.44,0.945c-7.485,4.424 -14.962,8.283 -21.653,13.209c-9.108,6.706 -18.454,7.496 -29.176,4.833c-11.049,-2.743 -22.455,-4.047 -34.113,-6.114c-9.604,-1.805 -18.8,-3.476 -28.416,-5.278c-6.644,-1.209 -12.868,-2.287 -19.216,-3.463c-0.125,-0.098 -0.431,-0.009 -0.638,-0.27c-0.611,-0.432 -1.014,-0.603 -1.417,-0.798c0,-0.023 -0.045,-0.009 -0.214,-0.341c-0.927,-1.566 -1.801,-2.743 -2.424,-4.042c-5.342,-11.126 -10.655,-22.266 -15.943,-33.418c-6.136,-12.939 -12.237,-25.894 -18.354,-38.843Z" style="fill:#63ee6c;"/><path d="M325.952,60.374c0.446,0.504 0.631,0.779 1.171,1.06c0.239,0.086 0.286,0.019 0.313,0.387c0.176,0.808 0.325,1.249 0.434,2.102c0.004,1.237 0.048,2.062 -0.08,3.203c-0.849,1.3 -1.526,2.284 -2.541,3.401c-2.608,1.61 -4.926,3.018 -7.136,4.578c-4.844,3.419 -9.633,6.915 -14.735,10.66c-1.217,4.871 -2.164,9.457 -3.066,14.052c-1.162,5.919 -1.158,5.94 3.925,8.948c0.865,0.512 1.866,0.794 3.05,1.285c2.082,-5.936 4.042,-11.522 6.319,-17.341c2.411,-1.195 4.444,-2.327 6.609,-3.087c5.725,-2.012 11.506,-3.863 17.694,-5.851c2.342,-0.725 4.254,-1.378 6.569,-1.97c1.214,0.077 2.027,0.093 3.075,0.243c0.236,0.135 0.777,0.196 0.777,0.196c0.576,0.572 1.152,1.143 2.066,2.259c1.48,5.845 0.457,7.836 -4.306,9.632c-1.657,0.625 -3.3,1.285 -4.949,1.93c0,0 -0.206,-0.119 -0.689,-0.023c-1.197,0.447 -1.911,0.799 -2.625,1.15c0,0 -0.165,-0.2 -0.689,-0.108c-2.56,0.689 -4.678,1.097 -6.612,1.932c-2.503,1.08 -4.859,2.5 -7.583,4.021c-1.831,4.824 -3.357,9.401 -4.937,14.138c2.304,1.574 4.175,2.971 6.159,4.184c4.513,2.761 6.798,6.563 6.982,12.012c0.263,7.756 1.203,15.487 1.639,23.241c0.456,8.103 0.657,16.221 1.04,24.408c0.07,0.076 0.222,-0.064 -0.06,0.076c-0.419,0.528 -0.556,0.916 -0.666,1.318c0.028,0.014 -0.024,-0.024 -0.306,0.151c-0.597,0.753 -0.912,1.332 -1.079,1.918c0.148,0.008 0.163,-0.288 -0.169,-0.176c-0.545,0.509 -0.759,0.906 -0.911,1.217c0.061,-0.085 -0.109,-0.207 -0.404,-0.048c-1.142,1.181 -1.99,2.204 -2.747,3.308c0.09,0.081 -0.107,-0.06 -0.354,0.039c-0.544,0.325 -0.732,0.621 -1.127,1.162c-2.906,3.056 -5.496,5.935 -8.349,8.926c-0.468,0.423 -0.674,0.734 -1.239,1.219c-2.292,2.105 -4.716,2.282 -7.431,1.976c-0.19,-0.121 -0.64,-0.13 -0.888,-0.391c-0.928,-0.454 -1.607,-0.647 -2.213,-0.794c0.074,0.046 0.166,-0.102 0.024,-0.326c-0.423,-0.469 -0.75,-0.585 -1.226,-0.677c-0.103,-0.107 -0.384,-0.011 -0.593,-0.287c-0.633,-0.445 -1.056,-0.614 -1.491,-0.822c-0.013,-0.039 -0.091,-0.014 -0.285,-0.264c-0.781,-0.474 -1.368,-0.697 -1.898,-0.856c0.057,0.065 0.187,-0.048 0.053,-0.287c-0.464,-0.374 -0.795,-0.509 -1.24,-0.743c-0.115,-0.1 -0.419,-0.115 -0.633,-0.382c-0.63,-0.434 -1.046,-0.602 -1.463,-0.76c-0.001,0.009 0.013,-0.003 -0.19,-0.256c-0.798,-0.488 -1.393,-0.723 -1.973,-0.915c0.015,0.042 0.099,0.012 -0.107,-0.256c-0.831,-0.505 -1.455,-0.742 -2.038,-0.947c0.042,0.032 0.106,-0.052 -0.129,-0.332c-5.99,-3.697 -11.581,-7.438 -17.549,-10.431c-5.081,-2.549 -6.999,-6.013 -6.621,-11.656c0.47,-7.027 0.028,-14.111 0.23,-21.163c0.155,-5.426 -1.037,-10.015 -5.975,-13.066c-2.591,-1.601 -3.277,-4.136 -3.047,-7.062c0.212,-2.698 0.277,-5.408 0.434,-8.491c0.021,-1.134 0.014,-1.89 0.372,-2.745c3.422,-2.224 6.507,-4.313 9.522,-6.498c0.821,-0.595 1.435,-1.477 2.123,-2.271c-0.021,-0.045 -0.111,-0.002 0.255,-0.031c1.221,-0.382 2.075,-0.736 2.911,-1.114c-0.019,-0.025 -0.039,0.035 0.273,0.003c0.801,-0.386 1.291,-0.74 1.837,-1.076c0.056,0.018 0.092,-0.095 0.427,-0.164c0.661,-0.374 0.988,-0.68 1.474,-0.941c0.159,0.044 0.385,-0.199 0.649,-0.245c0.641,-0.204 0.831,-0.487 0.784,-0.903c-0.051,-0.008 -0.067,0.094 0.271,0.097c0.874,-0.375 1.41,-0.753 1.918,-1.148c-0.028,-0.017 -0.039,0.048 0.26,0.011c0.764,-0.388 1.229,-0.74 1.795,-1.064c0.101,0.028 0.169,-0.17 0.429,-0.229c0.612,-0.241 0.797,-0.53 0.793,-0.902c-0.025,0.023 0.035,0.057 0.378,-0.163c0.851,-2.105 1.383,-3.984 1.862,-5.877c1.572,-6.206 3.124,-12.417 4.606,-18.712c-0.079,-0.086 -0.25,0.072 0.106,-0.026c0.585,-0.508 0.813,-0.919 0.97,-1.189c-0.072,0.14 0.209,0.283 0.539,0.133c2.911,-1.976 5.491,-3.803 8.072,-5.629c0,0 -0.104,-0.113 0.261,-0.23c5.166,-3.332 9.967,-6.545 14.768,-9.759c0,0 0.045,0.021 0.049,-0.005c2.57,-1.168 5.136,-1.813 8.083,0.116Z" style="fill:#63ee6c;"/><path d="M116.066,1.341c0.177,-0.314 0.403,-0.587 1.153,-0.963c0.644,-0.209 0.815,-0.275 0.985,-0.34c0.189,0.05 0.379,0.099 1.041,0.49c5.306,6.015 10.139,11.689 15.089,17.664c0.457,0.553 0.797,0.805 1.113,0.954c-0.024,-0.104 -0.231,-0.056 -0.129,0.241c0.551,0.712 0.999,1.128 1.543,1.802c0.374,0.492 0.651,0.724 1.008,1.237c0.375,0.522 0.67,0.764 1.036,1.234c0.234,0.527 0.482,0.715 0.964,1.133c12.85,15.683 25.515,31.056 38.269,46.353c4.28,5.133 8.789,10.074 13.3,15.388c0.415,0.539 0.723,0.792 1.113,1.302c0.283,0.587 0.574,0.785 0.953,0.812c-0.002,-0.038 -0.079,-0.032 0.018,0.252c0.427,0.485 0.757,0.686 1.095,0.835c0.009,-0.051 -0.093,-0.068 -0.015,0.268c0.398,0.66 0.718,0.984 1.148,1.637c3.823,4.876 7.637,9.347 11.194,14.014c1.22,1.601 1.798,3.692 2.251,5.662c-3.817,1.025 -6.349,-1.105 -9.02,-2.48c-29.797,-15.343 -59.549,-30.77 -89.345,-46.115c-7.733,-3.983 -7.782,-3.887 -6.776,-12.732c0.782,-3.406 1.472,-6.388 2.303,-9.771c0.152,-0.941 0.06,-1.506 0.19,-2.015c2.392,-9.382 4.81,-18.757 7.416,-28.492c0.83,-3.028 1.466,-5.697 2.103,-8.367Z" style="fill:#63ee6c;"/><path d="M118.069,0.013c-0.036,0.091 -0.207,0.156 -0.649,0.189c-0.027,-0.17 0.235,-0.231 0.649,-0.189Z" style="fill:#1b2818;"/><path d="M182.359,258.022c-0.11,0.333 -0.489,0.847 -1.118,1.567c0.117,-0.325 0.483,-0.855 1.118,-1.567Z" style="fill:#315f31;"/><path d="M84.627,212.55c0.078,-0.317 0.412,-0.787 0.942,-1.468c-0.098,0.297 -0.392,0.807 -0.942,1.468Z" style="fill:#23391f;"/><path d="M108.739,183.566c-0.039,-0.16 0.175,-0.465 0.594,-0.959c0.024,0.145 -0.159,0.48 -0.594,0.959Z" style="fill:#315f31;"/><path d="M185.561,254.374c0.028,0.172 -0.225,0.455 -0.687,0.932c-0.004,-0.144 0.201,-0.483 0.687,-0.932Z" style="fill:#315f31;"/><path d="M184.501,255.528c0.039,0.165 -0.193,0.434 -0.633,0.873c-0.002,-0.129 0.188,-0.443 0.633,-0.873Z" style="fill:#315f31;"/><path d="M163.718,281.374c0.028,0.159 -0.227,0.524 -0.656,1.171c0.008,-0.133 0.191,-0.549 0.656,-1.171Z" style="fill:#253f22;"/><path d="M186.69,125.909c-0.026,0.134 -0.327,0.341 -0.855,0.701c0.042,-0.107 0.311,-0.368 0.855,-0.701Z" style="fill:#2c5a2e;"/><path d="M135.317,19.387c0.335,0.128 0.773,0.552 1.328,1.26c-0.33,-0.132 -0.778,-0.547 -1.328,-1.26Z" style="fill:#253f22;"/><path d="M137.869,22.426c0.182,-0.017 0.444,0.247 0.835,0.758c-0.165,0.006 -0.461,-0.236 -0.835,-0.758Z" style="fill:#253f22;"/><path d="M134.333,18.192c0.185,-0.022 0.487,0.257 0.963,0.797c-0.166,0.008 -0.506,-0.244 -0.963,-0.797Z" style="fill:#253f22;"/><path d="M194.603,90.002c0.162,0.034 0.402,0.404 0.84,1.041c-0.122,-0.057 -0.442,-0.381 -0.84,-1.041Z" style="fill:#253f22;"/><path d="M193.523,88.899c0.16,-0.018 0.417,0.248 0.88,0.7c-0.124,-0.015 -0.453,-0.216 -0.88,-0.7Z" style="fill:#253f22;"/><path d="M192.551,87.835c0.126,0.009 0.348,0.262 0.77,0.676c-0.196,0.109 -0.487,-0.089 -0.77,-0.676Z" style="fill:#253f22;"/><path d="M261.179,292.159c-0.77,0.5 -1.339,0.737 -2.09,1.228c-2.268,1.466 -4.354,2.677 -6.982,4.271c-4.687,2.542 -8.832,4.702 -12.976,6.862c0,0 -0.366,-0.005 -0.549,-0.007c-1.015,-0.353 -1.848,-0.703 -3.049,-1.077c-0.594,-0.507 -0.684,-1.217 -1.063,-1.441c-6.497,-3.838 -13.029,-7.617 -19.555,-11.405c-1.797,-1.043 -3.601,-2.072 -5.769,-3.195c-0.367,-0.087 -0.568,-0.301 -0.925,-0.539c-0.769,-0.398 -1.182,-0.558 -1.594,-0.719c-1.748,-1.63 -3.495,-3.259 -5.423,-5.203c-0.192,-12.094 -0.014,-23.878 -0.309,-35.65c-0.116,-4.634 1.559,-7.348 5.579,-9.463c5.926,-3.118 11.588,-6.737 17.612,-10.424c3.738,-2.145 7.407,-3.742 10.665,-5.945c3.679,-2.487 6.924,-2.358 10.465,0.059c2.376,1.621 4.949,2.953 7.811,4.506c4.49,2.535 8.603,4.979 13.207,7.678c0.7,0.501 0.965,0.618 1.288,0.604c0,0 0.319,0.295 0.731,0.567c0.792,0.435 1.171,0.597 1.55,0.76c0,0 0.039,0.114 0.315,0.363c1.909,1.148 3.542,2.046 5.175,2.944c0.68,0.912 1.36,1.824 2.225,3.025c0.1,12.041 0.054,23.794 -0.104,35.545c-0.029,2.131 -0.517,4.256 -1.161,6.937c-0.668,0.77 -0.871,1.056 -1.266,1.49c-0.512,0.392 -0.736,0.704 -0.856,1.006c0.104,-0.01 0.084,-0.218 -0.256,-0.175c-0.869,0.441 -1.399,0.838 -1.897,1.252c0.031,0.016 0.044,-0.053 -0.272,-0.012c-0.817,0.408 -1.317,0.775 -1.836,1.13c-0.019,-0.012 -0.02,0.033 -0.357,0.087c-1.245,0.699 -2.154,1.344 -3.063,1.989c0,0 0.075,0.039 -0.24,0.042c-0.856,0.375 -1.397,0.746 -1.939,1.116c-0.964,0.51 -1.928,1.021 -3.094,1.794Z" style="fill:#63ee6c;"/><path d="M206.909,286.295c0.13,0.003 0.543,0.163 1.168,0.588c-0.154,0.033 -0.52,-0.198 -1.168,-0.588Z" style="fill:#253f22;"/></g></svg>