<?xml version="1.0" encoding="UTF-8" standalone="no"?><!DOCTYPE svg PUBLIC "-//W3C//DTD SVG 1.1//EN" "http://www.w3.org/Graphics/SVG/1.1/DTD/svg11.dtd"><svg width="100%" height="100%" viewBox="0 0 205 56" version="1.1" xmlns="http://www.w3.org/2000/svg" xmlns:xlink="http://www.w3.org/1999/xlink" xml:space="preserve" xmlns:serif="http://www.serif.com/" style="fill-rule:evenodd;clip-rule:evenodd;stroke-linejoin:round;stroke-miterlimit:2;"><g><path d="M12.616,47.851c-0.206,-0.001 -0.411,-0.001 -0.679,-0.007c-0.062,-0.005 -0.066,-0.005 -0.101,-0.044c-0.234,-0.279 -0.434,-0.519 -0.634,-0.758c0,0 0.005,-0.064 -0.003,-0.163c0.021,-0.499 0.025,-0.902 0.085,-1.297c0.184,-1.219 0.357,-2.429 0.186,-3.673c-0.32,-2.333 -0.584,-4.673 -0.892,-7.008c-0.086,-0.655 0.061,-1.209 0.485,-1.714c0.429,-0.511 0.828,-1.046 1.279,-1.593c0.066,-0.074 0.092,-0.126 0.157,-0.201c0.081,-0.098 0.125,-0.173 0.213,-0.275c0.551,-0.653 1.056,-1.28 1.606,-1.934c0.598,-0.702 1.151,-1.376 1.742,-2.072c0.064,-0.071 0.091,-0.12 0.152,-0.196c0.048,-0.051 0.061,-0.077 0.121,-0.127c0.473,-0.522 1.065,-0.569 1.657,-0.616c1.282,-0.1 2.57,-0.158 3.845,-0.313c0.942,-0.114 1.735,0.017 2.395,0.764c0.221,0.25 0.474,0.565 0.95,0.586c0,-1.553 0.052,-3.055 -0.019,-4.55c-0.044,-0.913 0.309,-1.439 1.09,-1.841c0.807,-0.415 1.561,-0.932 2.394,-1.42c0.779,-0.426 1.517,-0.812 2.221,-1.252c0.663,-0.414 1.257,-0.423 1.942,-0.005c1.556,0.95 3.14,1.857 4.734,2.743c0.61,0.339 0.885,0.769 0.872,1.48c-0.031,1.69 0.025,3.381 0.001,5.071c-0.029,2.002 0.211,1.604 -1.567,2.679c-1.422,0.86 -2.854,1.704 -4.338,2.574c-0.609,0.312 -1.097,0.094 -1.57,-0.183c-0.995,-0.581 -1.982,-1.173 -2.977,-1.753c-0.237,-0.138 -0.491,-0.245 -0.836,-0.416c0.039,0.361 0.049,0.572 0.085,0.778c0.225,1.265 0.439,2.532 0.69,3.793c0.189,0.952 0.239,1.861 -0.473,2.648c0.005,0.008 0.02,-0.002 -0.022,0.014c-0.072,0.066 -0.102,0.116 -0.126,0.166c0.007,-0 0.007,-0.013 -0.031,0.004c-0.066,0.064 -0.094,0.11 -0.156,0.179c-0.063,0.07 -0.092,0.116 -0.16,0.189c-0.094,0.105 -0.148,0.184 -0.243,0.292c-0.741,0.927 -1.441,1.823 -2.18,2.742c-0.122,0.143 -0.205,0.264 -0.331,0.414c-0.069,0.092 -0.096,0.153 -0.115,0.205c0.008,-0.01 -0.011,-0.027 -0.055,0.007c-0.476,0.538 -0.923,1.03 -1.335,1.55c-0.421,0.532 -0.941,0.816 -1.618,0.922c-1.982,0.308 -3.957,0.661 -5.954,0.992c-0.019,-0.005 -0.042,0.026 -0.103,0.019c-0.251,0.053 -0.44,0.113 -0.628,0.183c0.001,0.009 0.02,0.006 -0.029,0.013c-0.088,0.058 -0.127,0.109 -0.205,0.197c-0.478,0.718 -0.917,1.399 -1.394,2.085c-0.091,0.026 -0.121,0.065 -0.13,0.121m1.682,-9.863c1.617,1.19 3.234,2.38 4.851,3.571c0.474,0.349 0.946,0.702 1.418,1.054c0.237,0.177 0.487,0.262 0.718,0.016c0.728,-0.775 1.383,-1.608 2.07,-2.492c-0.817,-0.61 -1.537,-1.161 -2.271,-1.693c-1.798,-1.303 -3.603,-2.596 -5.474,-3.933c0,0 -0.079,0.009 -0.149,-0.013c0,0 -0.073,-0.011 -0.096,-0.118c-0.592,-0.617 -1.331,-1.026 -2.044,-1.551c-0.379,0.464 -0.708,0.849 -1.016,1.251c-0.093,0.121 -0.185,0.289 -0.181,0.432c0.028,1.072 -0.014,2.176 1.18,2.765c0.333,0.164 0.624,0.41 0.994,0.71m5.142,-8.107c-0.752,-0.553 -1.503,-1.105 -2.327,-1.711c-0.744,0.995 -1.598,1.829 -2.338,2.87c3.375,2.495 6.664,4.926 9.995,7.388c0.507,-0.631 0.953,-1.165 1.376,-1.716c0.557,-0.726 0.403,-1.699 -0.348,-2.241c-2.087,-1.509 -4.176,-3.014 -6.357,-4.59Z" style="fill:#63ee6c;fill-rule:nonzero;"/><path d="M2.021,7.729c-0.599,-1.31 -1.203,-2.617 -1.791,-3.931c-0.102,-0.227 -0.136,-0.484 -0.23,-0.831c0.929,-0.019 1.481,0.579 2.242,0.814c0.077,0.004 0.058,-0.037 0.061,0.009c0.059,0.069 0.116,0.092 0.172,0.117c0,0.003 0.005,0 0.034,0.037c0.116,0.069 0.203,0.1 0.289,0.127c-0.001,-0.005 -0.006,0.003 0.03,0.045c0.437,0.237 0.838,0.433 1.243,0.62c0.003,-0.008 -0.012,-0.014 0.018,0.03c0.13,0.072 0.231,0.1 0.322,0.115c-0.009,-0.013 -0.035,0.004 -0.004,0.049c0.132,0.072 0.233,0.099 0.32,0.116c-0.014,-0.01 -0.034,0.018 0.001,0.062c0.452,0.244 0.868,0.444 1.323,0.68c1.129,0.601 2.214,1.172 3.307,1.73c0.922,0.47 1.852,0.925 2.816,1.427c2.798,1.481 5.559,2.921 8.319,4.362c2.745,1.434 5.49,2.868 8.349,4.362c-0.488,0.367 -0.845,0.636 -1.213,0.902c-0.01,-0.003 -0.016,0.017 -0.057,0.027c-0.08,0.049 -0.12,0.088 -0.213,0.14c-1.105,0.653 -2.21,1.223 -3.198,1.951c-1.345,0.99 -2.726,1.107 -4.309,0.714c-1.632,-0.405 -3.317,-0.598 -5.038,-0.903c-1.419,-0.267 -2.777,-0.513 -4.197,-0.78c-0.981,-0.178 -1.901,-0.338 -2.838,-0.511c-0.019,-0.015 -0.064,-0.001 -0.094,-0.04c-0.09,-0.064 -0.15,-0.089 -0.209,-0.118c0,-0.003 -0.007,-0.001 -0.032,-0.05c-0.137,-0.231 -0.266,-0.405 -0.358,-0.597c-0.789,-1.643 -1.574,-3.289 -2.355,-4.936c-0.906,-1.911 -1.807,-3.825 -2.711,-5.737Z" style="fill:#63ee6c;fill-rule:nonzero;"/><path d="M48.143,8.917c0.066,0.074 0.093,0.115 0.173,0.157c0.035,0.013 0.042,0.003 0.046,0.057c0.026,0.119 0.048,0.185 0.064,0.31c0.001,0.183 0.007,0.305 -0.012,0.473c-0.125,0.192 -0.225,0.337 -0.375,0.502c-0.385,0.238 -0.728,0.446 -1.054,0.676c-0.715,0.505 -1.423,1.021 -2.176,1.575c-0.18,0.719 -0.32,1.397 -0.453,2.075c-0.172,0.874 -0.171,0.877 0.58,1.322c0.128,0.076 0.276,0.117 0.451,0.19c0.308,-0.877 0.597,-1.702 0.933,-2.561c0.356,-0.177 0.656,-0.344 0.976,-0.456c0.846,-0.297 1.699,-0.571 2.613,-0.864c0.346,-0.107 0.628,-0.204 0.97,-0.291c0.179,0.011 0.299,0.014 0.454,0.036c0.035,0.02 0.115,0.029 0.115,0.029c0.085,0.084 0.17,0.169 0.305,0.334c0.219,0.863 0.068,1.157 -0.636,1.423c-0.245,0.092 -0.487,0.19 -0.731,0.285c0,0 -0.03,-0.018 -0.102,-0.003c-0.177,0.066 -0.282,0.118 -0.388,0.17c0,0 -0.024,-0.029 -0.102,-0.016c-0.378,0.102 -0.691,0.162 -0.977,0.285c-0.37,0.159 -0.718,0.369 -1.12,0.594c-0.27,0.713 -0.496,1.388 -0.729,2.088c0.34,0.233 0.617,0.439 0.91,0.618c0.667,0.408 1.004,0.969 1.031,1.774c0.039,1.146 0.178,2.287 0.242,3.433c0.067,1.197 0.097,2.396 0.154,3.605c0.01,0.011 0.033,-0.009 -0.009,0.011c-0.062,0.078 -0.082,0.135 -0.098,0.195c0.004,0.002 -0.004,-0.003 -0.045,0.022c-0.088,0.111 -0.135,0.197 -0.159,0.283c0.022,0.001 0.024,-0.042 -0.025,-0.026c-0.081,0.075 -0.112,0.134 -0.135,0.18c0.009,-0.013 -0.016,-0.031 -0.06,-0.007c-0.169,0.175 -0.294,0.326 -0.406,0.489c0.013,0.012 -0.016,-0.009 -0.052,0.006c-0.08,0.048 -0.108,0.092 -0.167,0.172c-0.429,0.451 -0.812,0.877 -1.233,1.318c-0.069,0.062 -0.1,0.108 -0.183,0.18c-0.339,0.311 -0.697,0.337 -1.097,0.292c-0.028,-0.018 -0.095,-0.019 -0.131,-0.058c-0.137,-0.067 -0.237,-0.096 -0.327,-0.117c0.011,0.007 0.024,-0.015 0.004,-0.048c-0.062,-0.069 -0.111,-0.086 -0.181,-0.1c-0.015,-0.016 -0.057,-0.002 -0.088,-0.042c-0.093,-0.066 -0.156,-0.091 -0.22,-0.121c-0.002,-0.006 -0.013,-0.002 -0.042,-0.039c-0.115,-0.07 -0.202,-0.103 -0.28,-0.126c0.008,0.01 0.028,-0.007 0.008,-0.042c-0.069,-0.055 -0.117,-0.075 -0.183,-0.11c-0.017,-0.015 -0.062,-0.017 -0.094,-0.056c-0.093,-0.064 -0.154,-0.089 -0.216,-0.112c-0,0.001 0.002,-0 -0.028,-0.038c-0.118,-0.072 -0.206,-0.107 -0.291,-0.135c0.002,0.006 0.015,0.002 -0.016,-0.038c-0.123,-0.075 -0.215,-0.11 -0.301,-0.14c0.006,0.005 0.016,-0.008 -0.019,-0.049c-0.885,-0.546 -1.711,-1.099 -2.592,-1.541c-0.751,-0.376 -1.034,-0.888 -0.978,-1.722c0.069,-1.038 0.004,-2.084 0.034,-3.126c0.023,-0.801 -0.153,-1.479 -0.882,-1.93c-0.383,-0.236 -0.484,-0.611 -0.45,-1.043c0.031,-0.399 0.041,-0.799 0.064,-1.254c0.003,-0.167 0.002,-0.279 0.055,-0.405c0.505,-0.328 0.961,-0.637 1.406,-0.96c0.121,-0.088 0.212,-0.218 0.314,-0.335c-0.003,-0.007 -0.016,-0 0.038,-0.005c0.18,-0.056 0.307,-0.109 0.43,-0.164c-0.003,-0.004 -0.006,0.005 0.04,0c0.118,-0.057 0.191,-0.109 0.271,-0.159c0.008,0.003 0.014,-0.014 0.063,-0.024c0.098,-0.055 0.146,-0.1 0.218,-0.139c0.024,0.006 0.057,-0.029 0.096,-0.036c0.095,-0.03 0.123,-0.072 0.116,-0.133c-0.008,-0.001 -0.01,0.014 0.04,0.014c0.129,-0.055 0.208,-0.111 0.283,-0.17c-0.004,-0.002 -0.006,0.007 0.038,0.002c0.113,-0.057 0.182,-0.109 0.265,-0.157c0.015,0.004 0.025,-0.025 0.063,-0.034c0.09,-0.036 0.118,-0.078 0.117,-0.133c-0.004,0.003 0.005,0.008 0.056,-0.024c0.126,-0.311 0.204,-0.588 0.275,-0.868c0.232,-0.917 0.461,-1.834 0.68,-2.764c-0.012,-0.013 -0.037,0.011 0.016,-0.004c0.086,-0.075 0.12,-0.136 0.143,-0.176c-0.011,0.021 0.031,0.042 0.08,0.02c0.43,-0.292 0.811,-0.562 1.192,-0.831c0,0 -0.015,-0.017 0.039,-0.034c0.763,-0.492 1.472,-0.967 2.181,-1.441c0,0 0.007,0.003 0.007,-0.001c0.38,-0.172 0.759,-0.268 1.194,0.017Z" style="fill:#63ee6c;fill-rule:nonzero;"/><path d="M17.143,0.198c0.026,-0.046 0.06,-0.087 0.17,-0.142c0.095,-0.031 0.12,-0.041 0.146,-0.05c0.028,0.007 0.056,0.015 0.154,0.072c0.784,0.888 1.497,1.726 2.229,2.609c0.068,0.082 0.118,0.119 0.164,0.141c-0.004,-0.015 -0.034,-0.008 -0.019,0.036c0.081,0.105 0.148,0.167 0.228,0.266c0.055,0.073 0.096,0.107 0.149,0.183c0.055,0.077 0.099,0.113 0.153,0.182c0.035,0.078 0.071,0.106 0.142,0.167c1.898,2.316 3.768,4.587 5.652,6.846c0.632,0.758 1.298,1.488 1.964,2.273c0.061,0.08 0.107,0.117 0.164,0.192c0.042,0.087 0.085,0.116 0.141,0.12c-0,-0.006 -0.012,-0.005 0.003,0.037c0.063,0.072 0.112,0.101 0.162,0.123c0.001,-0.008 -0.014,-0.01 -0.002,0.04c0.059,0.097 0.106,0.145 0.17,0.242c0.565,0.72 1.128,1.381 1.653,2.07c0.18,0.236 0.266,0.545 0.332,0.836c-0.564,0.151 -0.938,-0.163 -1.332,-0.366c-4.401,-2.266 -8.795,-4.545 -13.196,-6.811c-1.142,-0.588 -1.149,-0.574 -1.001,-1.881c0.115,-0.503 0.217,-0.943 0.34,-1.443c0.022,-0.139 0.009,-0.222 0.028,-0.298c0.353,-1.386 0.71,-2.77 1.095,-4.208c0.123,-0.447 0.217,-0.842 0.311,-1.236Z" style="fill:#63ee6c;fill-rule:nonzero;"/><path d="M17.439,0.002c-0.005,0.013 -0.031,0.023 -0.096,0.028c-0.004,-0.025 0.035,-0.034 0.096,-0.028Z" style="fill:#1b2818;fill-rule:nonzero;"/><path d="M26.934,38.11c-0.016,0.049 -0.072,0.125 -0.165,0.231c0.017,-0.048 0.071,-0.126 0.165,-0.231Z" style="fill:#315f31;fill-rule:nonzero;"/><path d="M12.499,31.393c0.011,-0.047 0.061,-0.116 0.139,-0.217c-0.015,0.044 -0.058,0.119 -0.139,0.217Z" style="fill:#23391f;fill-rule:nonzero;"/><path d="M16.061,27.112c-0.006,-0.024 0.026,-0.069 0.088,-0.142c0.003,0.021 -0.023,0.071 -0.088,0.142Z" style="fill:#315f31;fill-rule:nonzero;"/><path d="M27.407,37.571c0.004,0.025 -0.033,0.067 -0.102,0.138c-0.001,-0.021 0.03,-0.071 0.102,-0.138Z" style="fill:#315f31;fill-rule:nonzero;"/><path d="M27.251,37.741c0.006,0.024 -0.029,0.064 -0.094,0.129c-0,-0.019 0.028,-0.065 0.094,-0.129Z" style="fill:#315f31;fill-rule:nonzero;"/><path d="M24.181,41.559c0.004,0.024 -0.033,0.077 -0.097,0.173c0.001,-0.02 0.028,-0.081 0.097,-0.173Z" style="fill:#253f22;fill-rule:nonzero;"/><path d="M27.574,18.597c-0.004,0.02 -0.048,0.05 -0.126,0.104c0.006,-0.016 0.046,-0.054 0.126,-0.104Z" style="fill:#2c5a2e;fill-rule:nonzero;"/><path d="M19.986,2.863c0.049,0.019 0.114,0.082 0.196,0.186c-0.049,-0.02 -0.115,-0.081 -0.196,-0.186Z" style="fill:#253f22;fill-rule:nonzero;"/><path d="M20.363,3.312c0.027,-0.002 0.066,0.036 0.123,0.112c-0.024,0.001 -0.068,-0.035 -0.123,-0.112Z" style="fill:#253f22;fill-rule:nonzero;"/><path d="M19.841,2.687c0.027,-0.003 0.072,0.038 0.142,0.118c-0.024,0.001 -0.075,-0.036 -0.142,-0.118Z" style="fill:#253f22;fill-rule:nonzero;"/><path d="M28.743,13.293c0.024,0.005 0.059,0.06 0.124,0.154c-0.018,-0.008 -0.065,-0.056 -0.124,-0.154Z" style="fill:#253f22;fill-rule:nonzero;"/><path d="M28.583,13.13c0.024,-0.003 0.062,0.037 0.13,0.103c-0.018,-0.002 -0.067,-0.032 -0.13,-0.103Z" style="fill:#253f22;fill-rule:nonzero;"/><path d="M28.44,12.973c0.019,0.001 0.051,0.039 0.114,0.1c-0.029,0.016 -0.072,-0.013 -0.114,-0.1Z" style="fill:#253f22;fill-rule:nonzero;"/><path d="M38.576,43.151c-0.114,0.074 -0.198,0.109 -0.309,0.181c-0.335,0.217 -0.643,0.395 -1.031,0.631c-0.692,0.375 -1.304,0.694 -1.917,1.014c0,0 -0.054,-0.001 -0.081,-0.001c-0.15,-0.052 -0.273,-0.104 -0.45,-0.159c-0.088,-0.075 -0.101,-0.18 -0.157,-0.213c-0.96,-0.567 -1.924,-1.125 -2.888,-1.685c-0.265,-0.154 -0.532,-0.306 -0.852,-0.472c-0.054,-0.013 -0.084,-0.045 -0.137,-0.08c-0.114,-0.059 -0.175,-0.082 -0.236,-0.106c-0.258,-0.241 -0.516,-0.481 -0.801,-0.769c-0.028,-1.786 -0.002,-3.527 -0.046,-5.265c-0.017,-0.684 0.23,-1.085 0.824,-1.398c0.875,-0.461 1.712,-0.995 2.601,-1.54c0.552,-0.317 1.094,-0.553 1.575,-0.878c0.543,-0.367 1.023,-0.348 1.546,0.009c0.351,0.239 0.731,0.436 1.154,0.665c0.663,0.374 1.271,0.735 1.951,1.134c0.103,0.074 0.143,0.091 0.19,0.089c0,0 0.047,0.044 0.108,0.084c0.117,0.064 0.173,0.088 0.229,0.112c0,0 0.006,0.017 0.047,0.054c0.282,0.169 0.523,0.302 0.764,0.435c0.1,0.135 0.201,0.269 0.329,0.447c0.015,1.778 0.008,3.514 -0.015,5.25c-0.004,0.315 -0.076,0.629 -0.172,1.025c-0.099,0.114 -0.129,0.156 -0.187,0.22c-0.076,0.058 -0.109,0.104 -0.126,0.149c0.015,-0.001 0.012,-0.032 -0.038,-0.026c-0.128,0.065 -0.207,0.124 -0.28,0.185c0.005,0.002 0.007,-0.008 -0.04,-0.002c-0.121,0.06 -0.194,0.114 -0.271,0.167c-0.003,-0.002 -0.003,0.005 -0.053,0.013c-0.184,0.103 -0.318,0.198 -0.452,0.294c0,0 0.011,0.006 -0.036,0.006c-0.126,0.055 -0.206,0.11 -0.286,0.165c-0.142,0.075 -0.285,0.151 -0.457,0.265Z" style="fill:#63ee6c;fill-rule:nonzero;"/><path d="M30.56,42.285c0.019,0 0.08,0.024 0.172,0.087c-0.023,0.005 -0.077,-0.029 -0.172,-0.087Z" style="fill:#253f22;fill-rule:nonzero;"/></g><g transform="matrix(1.163336,0,0,1.163336,-639.647234,-1232.830365)"><text x="599.564px" y="1097.124px" style="font-family:'SairaCondensed-ExtraBold', 'Saira Condensed';font-weight:800;font-stretch:condensed;font-size:50.319px;fill:#fff;fill-opacity:0.94;">r<tspan x="614.106px 634.083px " y="1097.124px 1097.124px ">ep</tspan></text><g transform="matrix(50.319128,0,0,50.319128,727.374287,1097.124139)"></g><text x="655.217px" y="1097.124px" style="font-family:'SairaCondensed-ExtraBold', 'Saira Condensed';font-weight:800;font-stretch:condensed;font-size:50.319px;fill:#7ef67b;fill-opacity:0.94;">h<tspan x="676.502px 686.565px 705.888px " y="1097.124px 1097.124px 1097.124px ">ive</tspan></text></g></svg>