<?xml version="1.0" encoding="UTF-8" standalone="no"?><!DOCTYPE svg PUBLIC "-//W3C//DTD SVG 1.1//EN" "http://www.w3.org/Graphics/SVG/1.1/DTD/svg11.dtd"><svg width="100%" height="100%" viewBox="0 0 1729 1729" version="1.1" xmlns="http://www.w3.org/2000/svg" xmlns:xlink="http://www.w3.org/1999/xlink" xml:space="preserve" xmlns:serif="http://www.serif.com/" style="fill-rule:evenodd;clip-rule:evenodd;stroke-linejoin:round;stroke-miterlimit:2;"><rect x="0" y="0" width="1728.846" height="1728.846"/><g><g><path d="M674.865,912.407c-0.486,-0.001 -0.972,-0.003 -1.604,-0.016c-0.145,-0.012 -0.157,-0.012 -0.238,-0.105c-0.553,-0.659 -1.025,-1.226 -1.497,-1.792c0,0 0.012,-0.15 -0.008,-0.386c0.05,-1.179 0.059,-2.131 0.2,-3.063c0.435,-2.88 0.843,-5.74 0.44,-8.679c-0.757,-5.512 -1.381,-11.041 -2.107,-16.557c-0.204,-1.548 0.144,-2.856 1.145,-4.049c1.013,-1.207 1.957,-2.472 3.023,-3.764c0.155,-0.176 0.218,-0.299 0.371,-0.475c0.192,-0.231 0.294,-0.408 0.504,-0.649c1.301,-1.544 2.494,-3.025 3.795,-4.57c1.414,-1.658 2.72,-3.252 4.115,-4.896c0.152,-0.167 0.216,-0.284 0.36,-0.462c0.112,-0.121 0.144,-0.181 0.285,-0.3c1.118,-1.234 2.517,-1.345 3.915,-1.454c3.03,-0.237 6.071,-0.374 9.085,-0.74c2.226,-0.27 4.099,0.04 5.659,1.805c0.522,0.591 1.12,1.335 2.244,1.383c0,-3.669 0.123,-7.217 -0.046,-10.751c-0.103,-2.157 0.731,-3.4 2.576,-4.349c1.906,-0.979 3.687,-2.201 5.655,-3.354c1.841,-1.006 3.584,-1.919 5.249,-2.957c1.567,-0.977 2.969,-1 4.589,-0.011c3.677,2.245 7.419,4.387 11.185,6.481c1.441,0.801 2.09,1.817 2.059,3.496c-0.072,3.992 0.059,7.988 0.002,11.981c-0.068,4.729 0.497,3.789 -3.703,6.328c-3.36,2.032 -6.743,4.027 -10.248,6.083c-1.438,0.737 -2.592,0.221 -3.71,-0.432c-2.35,-1.372 -4.683,-2.772 -7.034,-4.142c-0.559,-0.326 -1.16,-0.58 -1.976,-0.983c0.092,0.854 0.115,1.352 0.202,1.838c0.531,2.989 1.038,5.983 1.629,8.961c0.447,2.25 0.565,4.397 -1.118,6.257c0.012,0.018 0.047,-0.005 -0.051,0.033c-0.17,0.157 -0.241,0.275 -0.297,0.393c0.016,-0 0.016,-0.032 -0.073,0.009c-0.155,0.15 -0.222,0.26 -0.369,0.423c-0.149,0.164 -0.217,0.274 -0.378,0.447c-0.221,0.248 -0.349,0.434 -0.574,0.691c-1.751,2.19 -3.405,4.307 -5.15,6.479c-0.288,0.339 -0.485,0.623 -0.781,0.979c-0.162,0.217 -0.226,0.362 -0.271,0.483c0.02,-0.024 -0.027,-0.064 -0.131,0.016c-1.124,1.272 -2.181,2.434 -3.153,3.663c-0.994,1.257 -2.224,1.929 -3.822,2.177c-4.683,0.729 -9.35,1.562 -14.067,2.343c-0.044,-0.011 -0.099,0.061 -0.244,0.045c-0.593,0.126 -1.04,0.268 -1.484,0.432c0.003,0.022 0.048,0.015 -0.069,0.03c-0.208,0.136 -0.3,0.258 -0.484,0.465c-1.129,1.696 -2.167,3.306 -3.294,4.927c-0.214,0.062 -0.286,0.153 -0.307,0.286m3.973,-23.304c3.82,2.812 7.642,5.622 11.46,8.436c1.12,0.825 2.235,1.658 3.35,2.491c0.56,0.419 1.151,0.619 1.697,0.039c1.721,-1.83 3.267,-3.8 4.89,-5.888c-1.93,-1.441 -3.631,-2.744 -5.365,-4c-4.249,-3.078 -8.513,-6.134 -12.933,-9.293c0,0 -0.186,0.022 -0.352,-0.031c0,0 -0.172,-0.025 -0.226,-0.278c-1.4,-1.459 -3.145,-2.425 -4.828,-3.663c-0.896,1.095 -1.673,2.006 -2.4,2.955c-0.22,0.287 -0.437,0.682 -0.428,1.022c0.066,2.534 -0.032,5.142 2.788,6.533c0.786,0.388 1.475,0.97 2.347,1.678m12.15,-19.154c-1.776,-1.305 -3.552,-2.611 -5.498,-4.042c-1.759,2.35 -3.776,4.321 -5.525,6.781c7.974,5.895 15.744,11.638 23.614,17.456c1.199,-1.49 2.251,-2.752 3.251,-4.054c1.317,-1.715 0.952,-4.014 -0.821,-5.296c-4.93,-3.565 -9.868,-7.121 -15.02,-10.845Z" style="fill:#63ee6c;fill-rule:nonzero;"/><path d="M649.834,817.611c-1.415,-3.094 -2.842,-6.183 -4.232,-9.288c-0.24,-0.537 -0.322,-1.144 -0.544,-1.964c2.195,-0.046 3.499,1.367 5.297,1.922c0.182,0.01 0.137,-0.088 0.144,0.022c0.14,0.163 0.273,0.217 0.407,0.277c0.001,0.006 0.012,0 0.081,0.087c0.274,0.162 0.479,0.237 0.683,0.301c-0.001,-0.011 -0.014,0.007 0.07,0.106c1.032,0.561 1.981,1.022 2.937,1.466c0.008,-0.018 -0.028,-0.033 0.043,0.071c0.308,0.171 0.545,0.237 0.761,0.273c-0.02,-0.031 -0.083,0.01 -0.01,0.115c0.312,0.169 0.551,0.233 0.756,0.273c-0.034,-0.024 -0.081,0.044 0.003,0.146c1.067,0.576 2.05,1.049 3.126,1.606c2.666,1.419 5.232,2.769 7.814,4.087c2.178,1.111 4.375,2.185 6.654,3.371c6.612,3.499 13.134,6.9 19.655,10.305c6.486,3.387 12.971,6.777 19.725,10.306c-1.152,0.867 -1.997,1.503 -2.865,2.131c-0.023,-0.007 -0.038,0.04 -0.134,0.065c-0.19,0.116 -0.284,0.207 -0.503,0.33c-2.612,1.544 -5.221,2.89 -7.556,4.609c-3.178,2.34 -6.44,2.616 -10.181,1.687c-3.856,-0.957 -7.836,-1.412 -11.904,-2.134c-3.351,-0.63 -6.56,-1.213 -9.916,-1.842c-2.319,-0.422 -4.49,-0.798 -6.706,-1.208c-0.044,-0.034 -0.15,-0.003 -0.223,-0.094c-0.213,-0.151 -0.354,-0.21 -0.494,-0.278c0,-0.008 -0.016,-0.003 -0.075,-0.119c-0.324,-0.546 -0.629,-0.957 -0.846,-1.41c-1.864,-3.883 -3.718,-7.77 -5.564,-11.662c-2.141,-4.515 -4.27,-9.036 -6.405,-13.555Z" style="fill:#63ee6c;fill-rule:nonzero;"/><path d="M758.804,820.418c0.156,0.176 0.22,0.272 0.409,0.37c0.083,0.03 0.1,0.007 0.109,0.135c0.061,0.282 0.113,0.436 0.152,0.733c0.001,0.432 0.017,0.72 -0.028,1.118c-0.296,0.454 -0.532,0.797 -0.887,1.187c-0.91,0.562 -1.719,1.053 -2.49,1.598c-1.69,1.193 -3.362,2.413 -5.142,3.72c-0.425,1.7 -0.755,3.3 -1.07,4.904c-0.406,2.066 -0.404,2.073 1.37,3.122c0.302,0.179 0.651,0.277 1.065,0.448c0.727,-2.071 1.41,-4.021 2.205,-6.051c0.841,-0.417 1.551,-0.812 2.306,-1.077c1.998,-0.702 4.015,-1.348 6.175,-2.042c0.817,-0.253 1.485,-0.481 2.292,-0.687c0.424,0.027 0.707,0.032 1.073,0.085c0.082,0.047 0.271,0.068 0.271,0.068c0.201,0.199 0.402,0.399 0.721,0.788c0.516,2.04 0.16,2.734 -1.503,3.361c-0.578,0.218 -1.152,0.449 -1.727,0.673c0,0 -0.072,-0.041 -0.24,-0.008c-0.418,0.156 -0.667,0.279 -0.916,0.401c0,0 -0.058,-0.07 -0.241,-0.038c-0.893,0.24 -1.633,0.383 -2.308,0.674c-0.873,0.377 -1.696,0.872 -2.646,1.403c-0.639,1.684 -1.172,3.281 -1.723,4.934c0.804,0.549 1.457,1.037 2.149,1.46c1.575,0.964 2.372,2.29 2.437,4.192c0.092,2.707 0.42,5.405 0.572,8.11c0.159,2.828 0.229,5.661 0.363,8.518c0.024,0.026 0.077,-0.022 -0.021,0.026c-0.146,0.184 -0.194,0.32 -0.232,0.46c0.01,0.005 -0.008,-0.008 -0.107,0.053c-0.208,0.263 -0.318,0.465 -0.377,0.669c0.052,0.003 0.057,-0.1 -0.059,-0.061c-0.19,0.178 -0.265,0.316 -0.318,0.425c0.021,-0.03 -0.038,-0.072 -0.141,-0.017c-0.399,0.412 -0.694,0.769 -0.959,1.155c0.031,0.028 -0.037,-0.021 -0.124,0.014c-0.19,0.113 -0.255,0.217 -0.393,0.405c-1.014,1.066 -1.918,2.071 -2.913,3.115c-0.163,0.148 -0.235,0.256 -0.432,0.425c-0.8,0.735 -1.646,0.796 -2.593,0.69c-0.066,-0.042 -0.223,-0.045 -0.31,-0.136c-0.324,-0.158 -0.561,-0.226 -0.772,-0.277c0.026,0.016 0.058,-0.035 0.009,-0.114c-0.148,-0.164 -0.262,-0.204 -0.428,-0.236c-0.036,-0.037 -0.134,-0.004 -0.207,-0.1c-0.221,-0.155 -0.368,-0.214 -0.52,-0.287c-0.004,-0.014 -0.032,-0.005 -0.1,-0.092c-0.273,-0.165 -0.477,-0.243 -0.662,-0.299c0.02,0.023 0.065,-0.017 0.019,-0.1c-0.162,-0.131 -0.277,-0.178 -0.433,-0.259c-0.04,-0.035 -0.146,-0.04 -0.221,-0.133c-0.22,-0.152 -0.365,-0.21 -0.51,-0.265c-0.001,0.003 0.005,-0.001 -0.066,-0.089c-0.278,-0.17 -0.486,-0.252 -0.689,-0.319c0.005,0.015 0.035,0.004 -0.037,-0.089c-0.29,-0.176 -0.508,-0.259 -0.711,-0.331c0.015,0.011 0.037,-0.018 -0.045,-0.116c-2.09,-1.29 -4.041,-2.596 -6.124,-3.64c-1.773,-0.889 -2.443,-2.098 -2.311,-4.067c0.164,-2.452 0.01,-4.924 0.08,-7.385c0.054,-1.894 -0.362,-3.495 -2.085,-4.56c-0.904,-0.559 -1.144,-1.443 -1.063,-2.465c0.074,-0.942 0.097,-1.887 0.151,-2.963c0.007,-0.396 0.005,-0.659 0.13,-0.958c1.194,-0.776 2.271,-1.505 3.323,-2.267c0.287,-0.208 0.501,-0.515 0.741,-0.793c-0.007,-0.016 -0.039,-0.001 0.089,-0.011c0.426,-0.133 0.724,-0.257 1.016,-0.389c-0.007,-0.009 -0.013,0.012 0.095,0.001c0.28,-0.135 0.451,-0.258 0.641,-0.376c0.02,0.006 0.032,-0.033 0.149,-0.057c0.231,-0.131 0.345,-0.237 0.514,-0.328c0.056,0.015 0.134,-0.069 0.227,-0.086c0.224,-0.071 0.29,-0.17 0.274,-0.315c-0.018,-0.003 -0.023,0.033 0.095,0.034c0.305,-0.131 0.492,-0.263 0.669,-0.4c-0.01,-0.006 -0.014,0.017 0.091,0.004c0.267,-0.136 0.429,-0.258 0.626,-0.371c0.035,0.01 0.059,-0.059 0.15,-0.08c0.213,-0.084 0.278,-0.185 0.277,-0.315c-0.009,0.008 0.012,0.02 0.132,-0.057c0.297,-0.735 0.483,-1.39 0.65,-2.051c0.548,-2.166 1.09,-4.333 1.607,-6.53c-0.027,-0.03 -0.087,0.025 0.037,-0.009c0.204,-0.177 0.284,-0.321 0.339,-0.415c-0.025,0.049 0.073,0.099 0.188,0.046c1.016,-0.69 1.916,-1.327 2.817,-1.964c0,0 -0.036,-0.039 0.091,-0.08c1.803,-1.163 3.478,-2.284 5.153,-3.406c0,0 0.016,0.007 0.017,-0.002c0.897,-0.408 1.792,-0.633 2.821,0.041Z" style="fill:#63ee6c;fill-rule:nonzero;"/><path d="M685.561,799.817c0.062,-0.11 0.141,-0.205 0.402,-0.336c0.225,-0.073 0.284,-0.096 0.344,-0.119c0.066,0.017 0.132,0.035 0.363,0.171c1.852,2.099 3.538,4.079 5.266,6.164c0.16,0.193 0.278,0.281 0.388,0.333c-0.008,-0.036 -0.081,-0.019 -0.045,0.084c0.192,0.249 0.349,0.394 0.539,0.629c0.13,0.172 0.227,0.253 0.352,0.432c0.131,0.182 0.234,0.267 0.362,0.431c0.082,0.184 0.168,0.249 0.336,0.395c4.484,5.473 8.904,10.837 13.355,16.176c1.493,1.791 3.067,3.515 4.641,5.37c0.145,0.188 0.252,0.276 0.388,0.454c0.099,0.205 0.2,0.274 0.333,0.283c-0.001,-0.013 -0.027,-0.011 0.006,0.088c0.149,0.169 0.264,0.239 0.382,0.291c0.003,-0.018 -0.032,-0.024 -0.005,0.093c0.139,0.23 0.251,0.343 0.401,0.571c1.334,1.702 2.665,3.262 3.906,4.89c0.426,0.559 0.628,1.288 0.785,1.976c-1.332,0.358 -2.216,-0.386 -3.148,-0.866c-10.398,-5.354 -20.781,-10.738 -31.178,-16.093c-2.699,-1.39 -2.716,-1.356 -2.365,-4.443c0.273,-1.189 0.514,-2.229 0.804,-3.41c0.053,-0.328 0.021,-0.526 0.066,-0.703c0.835,-3.274 1.678,-6.546 2.588,-9.943c0.29,-1.057 0.512,-1.988 0.734,-2.92Z" style="fill:#63ee6c;fill-rule:nonzero;"/><path d="M686.26,799.354c-0.013,0.032 -0.072,0.054 -0.227,0.066c-0.009,-0.059 0.082,-0.081 0.227,-0.066Z" style="fill:#1b2818;fill-rule:nonzero;"/><path d="M708.695,889.39c-0.039,0.116 -0.171,0.296 -0.39,0.547c0.041,-0.113 0.169,-0.298 0.39,-0.547Z" style="fill:#315f31;fill-rule:nonzero;"/><path d="M674.59,873.522c0.027,-0.111 0.144,-0.275 0.329,-0.512c-0.034,0.104 -0.137,0.281 -0.329,0.512Z" style="fill:#23391f;fill-rule:nonzero;"/><path d="M683.004,863.408c-0.014,-0.056 0.061,-0.162 0.207,-0.335c0.008,0.051 -0.055,0.167 -0.207,0.335Z" style="fill:#315f31;fill-rule:nonzero;"/><path d="M709.812,888.117c0.01,0.06 -0.079,0.159 -0.24,0.325c-0.001,-0.05 0.07,-0.169 0.24,-0.325Z" style="fill:#315f31;fill-rule:nonzero;"/><path d="M709.442,888.52c0.013,0.058 -0.067,0.152 -0.221,0.305c-0.001,-0.045 0.066,-0.154 0.221,-0.305Z" style="fill:#315f31;fill-rule:nonzero;"/><path d="M702.19,897.539c0.01,0.056 -0.079,0.183 -0.229,0.408c0.003,-0.047 0.067,-0.192 0.229,-0.408Z" style="fill:#253f22;fill-rule:nonzero;"/><path d="M710.206,843.287c-0.009,0.047 -0.114,0.119 -0.298,0.245c0.015,-0.037 0.109,-0.128 0.298,-0.245Z" style="fill:#2c5a2e;fill-rule:nonzero;"/><path d="M692.279,806.115c0.117,0.044 0.27,0.193 0.464,0.44c-0.115,-0.046 -0.271,-0.191 -0.464,-0.44Z" style="fill:#253f22;fill-rule:nonzero;"/><path d="M693.169,807.175c0.064,-0.006 0.155,0.086 0.292,0.264c-0.058,0.002 -0.161,-0.082 -0.292,-0.264Z" style="fill:#253f22;fill-rule:nonzero;"/><path d="M691.936,805.698c0.064,-0.008 0.17,0.09 0.336,0.278c-0.058,0.003 -0.176,-0.085 -0.336,-0.278Z" style="fill:#253f22;fill-rule:nonzero;"/><path d="M712.968,830.757c0.056,0.012 0.14,0.141 0.293,0.363c-0.042,-0.02 -0.154,-0.133 -0.293,-0.363Z" style="fill:#253f22;fill-rule:nonzero;"/><path d="M712.591,830.372c0.056,-0.006 0.146,0.087 0.307,0.244c-0.043,-0.005 -0.158,-0.075 -0.307,-0.244Z" style="fill:#253f22;fill-rule:nonzero;"/><path d="M712.252,830.001c0.044,0.003 0.121,0.091 0.269,0.236c-0.068,0.038 -0.17,-0.031 -0.269,-0.236Z" style="fill:#253f22;fill-rule:nonzero;"/><path d="M736.2,901.303c-0.269,0.174 -0.467,0.257 -0.729,0.428c-0.791,0.512 -1.519,0.934 -2.437,1.49c-1.636,0.887 -3.082,1.641 -4.528,2.395c0,0 -0.128,-0.002 -0.192,-0.003c-0.354,-0.123 -0.645,-0.245 -1.064,-0.376c-0.207,-0.177 -0.239,-0.425 -0.371,-0.503c-2.267,-1.339 -4.547,-2.658 -6.824,-3.98c-0.627,-0.364 -1.257,-0.723 -2.013,-1.115c-0.128,-0.03 -0.198,-0.105 -0.323,-0.188c-0.268,-0.139 -0.412,-0.195 -0.556,-0.251c-0.61,-0.569 -1.22,-1.137 -1.892,-1.816c-0.067,-4.22 -0.005,-8.333 -0.108,-12.441c-0.041,-1.617 0.544,-2.564 1.947,-3.302c2.068,-1.088 4.044,-2.351 6.146,-3.638c1.304,-0.749 2.585,-1.306 3.722,-2.075c1.284,-0.868 2.416,-0.823 3.652,0.021c0.829,0.566 1.727,1.03 2.726,1.572c1.567,0.885 3.002,1.738 4.609,2.679c0.244,0.175 0.337,0.216 0.45,0.211c0,0 0.111,0.103 0.255,0.198c0.276,0.152 0.409,0.208 0.541,0.265c0,0 0.013,0.04 0.11,0.127c0.666,0.4 1.236,0.714 1.806,1.027c0.237,0.318 0.475,0.636 0.777,1.056c0.035,4.202 0.019,8.303 -0.036,12.404c-0.01,0.744 -0.18,1.485 -0.405,2.421c-0.233,0.269 -0.304,0.368 -0.442,0.52c-0.179,0.137 -0.257,0.246 -0.299,0.351c0.036,-0.003 0.029,-0.076 -0.089,-0.061c-0.303,0.154 -0.488,0.293 -0.662,0.437c0.011,0.005 0.016,-0.018 -0.095,-0.004c-0.285,0.142 -0.459,0.27 -0.641,0.394c-0.007,-0.004 -0.007,0.012 -0.124,0.031c-0.435,0.244 -0.752,0.469 -1.069,0.694c0,0 0.026,0.014 -0.084,0.015c-0.299,0.131 -0.488,0.26 -0.676,0.39c-0.336,0.178 -0.673,0.356 -1.08,0.626Z" style="fill:#63ee6c;fill-rule:nonzero;"/><path d="M717.262,899.257c0.046,0.001 0.19,0.057 0.407,0.205c-0.054,0.011 -0.181,-0.069 -0.407,-0.205Z" style="fill:#253f22;fill-rule:nonzero;"/></g><g><path d="M787.264,831.575l19.778,0l0.553,11.341l1.106,0c1.475,-4.61 3.458,-7.837 5.947,-9.681c2.49,-1.844 5.855,-2.766 10.096,-2.766l0,20.884c-4.057,0 -7.284,0.507 -9.681,1.521c-2.397,1.014 -4.195,2.927 -5.394,5.74c-1.199,2.812 -1.798,6.846 -1.798,12.102l0,31.396l-20.608,0l0,-70.537Z" style="fill:#fff;fill-opacity:0.94;fill-rule:nonzero;"/><path d="M876.61,872.514l-30.428,0c0,4.795 0.207,8.068 0.622,9.82c0.415,1.752 1.383,2.881 2.904,3.389c1.521,0.507 4.311,0.761 8.368,0.761c5.071,0 10.696,-0.231 16.873,-0.692l0,15.352c-2.397,0.645 -5.624,1.153 -9.681,1.521c-4.057,0.369 -8.068,0.553 -12.033,0.553c-8.575,0 -14.799,-1.245 -18.671,-3.734c-3.873,-2.49 -6.316,-6.132 -7.33,-10.926c-1.014,-4.795 -1.521,-11.987 -1.521,-21.576c0,-9.497 0.53,-16.689 1.591,-21.576c1.06,-4.887 3.435,-8.598 7.123,-11.134c3.688,-2.536 9.497,-3.803 17.427,-3.803c8.022,0 13.762,1.176 17.219,3.527c3.458,2.351 5.578,5.832 6.362,10.442c0.784,4.61 1.176,12.125 1.176,22.544l0,5.532Zm-24.757,-25.725c-1.752,0 -2.997,0.254 -3.734,0.761c-0.738,0.507 -1.245,1.66 -1.521,3.458c-0.277,1.798 -0.415,4.818 -0.415,9.059l11.203,0c0,-4.334 -0.115,-7.376 -0.346,-9.128c-0.231,-1.752 -0.692,-2.881 -1.383,-3.389c-0.692,-0.507 -1.959,-0.761 -3.803,-0.761Z" style="fill:#fff;fill-opacity:0.94;fill-rule:nonzero;"/><path d="M882.143,831.575l19.778,0l0.553,8.022l1.245,0c1.014,-3.319 2.766,-5.671 5.256,-7.054c2.49,-1.383 5.348,-2.075 8.575,-2.075c4.334,0 7.722,1.037 10.166,3.112c2.443,2.075 4.218,5.694 5.325,10.857c1.106,5.163 1.66,12.586 1.66,22.267c0,9.405 -0.507,16.712 -1.521,21.922c-1.014,5.21 -2.743,8.944 -5.187,11.203c-2.443,2.259 -5.878,3.389 -10.304,3.389c-3.412,0 -6.27,-0.668 -8.575,-2.005c-2.305,-1.337 -4.057,-3.481 -5.256,-6.431l-1.106,0l0,34.715l-20.608,0l0,-97.921Zm26.278,53.663c2.029,0 3.389,-0.3 4.08,-0.899c0.692,-0.599 1.153,-2.075 1.383,-4.426c0.231,-2.351 0.346,-6.708 0.346,-13.07c0,-6.362 -0.115,-10.719 -0.346,-13.07c-0.231,-2.351 -0.692,-3.826 -1.383,-4.426c-0.692,-0.599 -2.052,-0.899 -4.08,-0.899c-1.567,0 -2.72,0.254 -3.458,0.761c-0.738,0.507 -1.291,1.591 -1.66,3.25c-0.277,1.106 -0.438,2.927 -0.484,5.463c-0.046,2.536 -0.069,5.509 -0.069,8.921c0,7.837 0.138,12.448 0.415,13.831c0.369,1.844 0.945,3.066 1.729,3.665c0.784,0.599 1.959,0.899 3.527,0.899Z" style="fill:#fff;fill-opacity:0.94;fill-rule:nonzero;"/><path d="M971.489,864.215c0,-5.44 -0.092,-9.151 -0.277,-11.134c-0.184,-1.982 -0.599,-3.25 -1.245,-3.803c-0.645,-0.553 -1.89,-0.83 -3.734,-0.83c-1.844,0 -3.112,0.369 -3.803,1.106c-0.692,0.738 -1.13,2.259 -1.314,4.564c-0.184,2.305 -0.277,6.408 -0.277,12.309l0,35.683l-20.608,0l0,-102.762l20.608,0l0,40.247l1.106,0c2.397,-6.086 7.33,-9.128 14.799,-9.128c4.334,0 7.607,0.853 9.82,2.559c2.213,1.706 3.688,4.311 4.426,7.814c0.738,3.504 1.106,8.345 1.106,14.522l0,46.748l-20.608,0l0,-37.896Z" style="fill:#7ef67b;fill-opacity:0.94;fill-rule:nonzero;"/><path d="M998.735,817.468l0,-18.118l20.746,0l0,18.118l-20.746,0Zm0,84.644l0,-70.537l20.746,0l0,70.537l-20.746,0Z" style="fill:#7ef67b;fill-opacity:0.94;fill-rule:nonzero;"/><path d="M1035.94,902.112l-14.384,-70.537l20.746,0l7.607,49.514l1.245,0l7.192,-49.514l20.469,0l-14.384,70.537l-28.491,0Z" style="fill:#7ef67b;fill-opacity:0.94;fill-rule:nonzero;"/><path d="M1128.882,872.514l-30.428,0c0,4.795 0.207,8.068 0.622,9.82c0.415,1.752 1.383,2.881 2.904,3.389c1.521,0.507 4.311,0.761 8.368,0.761c5.071,0 10.696,-0.231 16.873,-0.692l0,15.352c-2.397,0.645 -5.624,1.153 -9.681,1.521c-4.057,0.369 -8.068,0.553 -12.033,0.553c-8.575,0 -14.799,-1.245 -18.671,-3.734c-3.873,-2.49 -6.316,-6.132 -7.33,-10.926c-1.014,-4.795 -1.521,-11.987 -1.521,-21.576c0,-9.497 0.53,-16.689 1.591,-21.576c1.06,-4.887 3.435,-8.598 7.123,-11.134c3.688,-2.536 9.497,-3.803 17.427,-3.803c8.022,0 13.762,1.176 17.219,3.527c3.458,2.351 5.578,5.832 6.362,10.442c0.784,4.61 1.176,12.125 1.176,22.544l0,5.532Zm-24.757,-25.725c-1.752,0 -2.997,0.254 -3.734,0.761c-0.738,0.507 -1.245,1.66 -1.521,3.458c-0.277,1.798 -0.415,4.818 -0.415,9.059l11.203,0c0,-4.334 -0.115,-7.376 -0.346,-9.128c-0.231,-1.752 -0.692,-2.881 -1.383,-3.389c-0.692,-0.507 -1.959,-0.761 -3.803,-0.761Z" style="fill:#7ef67b;fill-opacity:0.94;fill-rule:nonzero;"/></g></g></svg>